<?xml version="1.0" encoding="UTF-8" standalone="no"?>
<svg
   xmlns:dc="http://purl.org/dc/elements/1.1/"
   xmlns:cc="http://creativecommons.org/ns#"
   xmlns:rdf="http://www.w3.org/1999/02/22-rdf-syntax-ns#"
   xmlns:svg="http://www.w3.org/2000/svg"
   xmlns="http://www.w3.org/2000/svg"
   xmlns:sodipodi="http://sodipodi.sourceforge.net/DTD/sodipodi-0.dtd"
   xmlns:inkscape="http://www.inkscape.org/namespaces/inkscape"
   version="1.1"
   id="Layer_1"
   x="0px"
   y="0px"
   viewBox="0 0 651.37378 200"
   xml:space="preserve"
   sodipodi:docname="Herois_Betano_black.svg"
   width="651.37378"
   height="200"
   inkscape:version="1.0.1 (3bc2e813f5, 2020-09-07)"><metadata
   id="metadata983"><rdf:RDF><cc:Work
       rdf:about=""><dc:format>image/svg+xml</dc:format><dc:type
         rdf:resource="http://purl.org/dc/dcmitype/StillImage" /></cc:Work></rdf:RDF></metadata><defs
   id="defs981" /><sodipodi:namedview
   pagecolor="#ffffff"
   bordercolor="#666666"
   borderopacity="1"
   objecttolerance="10"
   gridtolerance="10"
   guidetolerance="10"
   inkscape:pageopacity="0"
   inkscape:pageshadow="2"
   inkscape:window-width="1360"
   inkscape:window-height="706"
   id="namedview979"
   showgrid="false"
   inkscape:zoom="1.2363636"
   inkscape:cx="87.515031"
   inkscape:cy="-30.337513"
   inkscape:window-x="-8"
   inkscape:window-y="-8"
   inkscape:window-maximized="1"
   inkscape:current-layer="g976" />
<style
   type="text/css"
   id="style833">
	.st0{fill:#1A171B;}
	.st1{fill:#2A2622;}
	.st2{opacity:0.1;fill:#FFFFFF;}
	.st3{fill:#1D1C18;}
	.st4{fill:url(#XMLID_2_);}
	.st5{fill:#373430;}
	.st6{fill:url(#XMLID_3_);}
	.st7{fill:#F6AD3C;}
	.st8{fill:url(#XMLID_4_);}
	.st9{opacity:0.7;fill:url(#XMLID_5_);}
	.st10{opacity:0.85;fill:url(#XMLID_6_);}
	.st11{fill:url(#XMLID_7_);}
	.st12{opacity:0.85;fill:#CA5827;}
	.st13{fill:url(#XMLID_8_);}
	.st14{opacity:0.85;fill:url(#XMLID_9_);}
	.st15{fill:url(#XMLID_10_);}
	.st16{fill:url(#XMLID_11_);}
	.st17{opacity:0.85;fill:url(#XMLID_12_);}
</style>
<g
   id="g976"
   transform="translate(-214.98497,-206.83751)">
	
	<g
   id="g974"
   transform="matrix(1.8193755,0,0,1.8193755,-176.15341,-169.47759)">
		<g
   id="XMLID_1725_">
			<g
   id="XMLID_1747_">
				<g
   id="XMLID_1748_">
					<path
   id="XMLID_1768_"
   class="st1"
   d="m 352.13,236.14 c 9.93,0 14.55,4.97 12.63,14.12 -1.06,4.97 -4.12,8.52 -8.09,10.65 3.97,1.99 5.96,5.82 4.76,11.71 -2.13,10.01 -9.3,14.62 -19.87,14.62 h -22 l 10.86,-51.1 z m -11.14,41.66 c 3.76,0 6.1,-1.7 7.03,-5.82 0.85,-4.26 -0.78,-5.82 -4.54,-5.82 h -5.96 l -2.48,11.64 z m 4.33,-21.22 c 3.12,0 5.25,-2.06 5.96,-5.54 0.78,-3.62 -0.5,-5.53 -3.62,-5.53 h -5.75 l -2.34,11.07 z m 58.69,-20.44 c 0.14,1.06 0.07,2.84 -0.28,4.76 -0.5,2.13 -1.14,4.04 -1.84,5.25 h -19.3 l -2.2,10.36 h 15.75 c 0.07,1.21 0.14,2.62 -0.28,4.83 -0.49,2.27 -1.14,3.69 -1.77,4.97 h -15.76 l -2.34,10.93 H 396 c 0.14,1.21 0.07,3.05 -0.36,4.9 -0.42,1.99 -0.99,3.83 -1.77,5.11 h -33.5 l 10.86,-51.1 h 32.78 z m 41.78,0 c 0,0 0.21,2.27 -0.49,5.54 -0.64,3.19 -1.84,5.61 -1.84,5.61 h -12.07 l -8.37,39.31 c 0,0 -2.98,0.64 -6.89,0.64 -4.25,0 -6.6,-0.64 -6.6,-0.64 l 8.38,-39.31 h -12.42 c 0,0 -0.28,-2.2 0.43,-5.47 0.71,-3.41 1.92,-5.68 1.92,-5.68 z m 16.64,0 c 5.89,0 8.51,0.64 8.51,0.64 l 4.9,49.82 c 0,0 -2.49,0.64 -7.1,0.64 -4.19,0 -6.32,-0.64 -6.32,-0.64 l -0.85,-9.36 h -16.39 l -4.82,9.36 c 0,0 -2.56,0.64 -6.68,0.64 -3.97,0 -6.24,-0.64 -6.24,-0.64 l 26.11,-49.82 c 0.01,0 3.2,-0.64 8.88,-0.64 z m -2.98,11.78 c 0,0 -1.14,4.05 -3.55,8.66 l -5.96,11.36 h 10.78 l -0.99,-11.36 c -0.42,-4.68 0,-8.66 0,-8.66 z m 37.62,15.33 c -1.21,-7.1 -1.06,-13.34 -1.06,-13.34 h -0.36 c 0,0 -0.5,6.1 -2.2,14.12 l -4.75,22.57 c 0,0 -2.13,0.64 -6.03,0.64 -3.83,0 -5.46,-0.64 -5.46,-0.64 l 10.57,-49.82 c 0,0 3.05,-0.64 9.08,-0.64 5.96,0 8.44,0.64 8.44,0.64 l 4.12,23.06 c 1.07,6.88 0.99,14.62 0.99,14.62 h 0.28 c 0,0 0.92,-7.59 2.63,-15.47 L 518,236.78 c 0,0 2.56,-0.64 6.03,-0.64 3.69,0 5.53,0.64 5.53,0.64 L 519,286.6 c 0,0 -2.84,0.64 -8.87,0.64 -5.61,0 -8.66,-0.64 -8.66,-0.64 z m 58.21,-28.03 c 13.7,0 20.58,9.15 16.61,27.67 -3.9,18.52 -13.77,25.26 -27.54,25.26 -13.77,0 -20.44,-8.94 -16.53,-27.46 3.9,-18.3 13.76,-25.47 27.46,-25.47 z m -1.99,10.15 c -5.04,0 -8.59,3.12 -11.42,16.32 -2.77,13.13 -0.5,16.25 4.54,16.25 5.18,0 8.66,-3.12 11.43,-16.25 2.83,-13.2 0.63,-16.32 -4.55,-16.32 z" />
					<g
   id="XMLID_1758_">
						<path
   id="XMLID_1767_"
   class="st2"
   d="m 529.58,236.78 c 0,0 -1.84,-0.64 -5.53,-0.64 -3.48,0 -6.03,0.64 -6.03,0.64 l -3.37,15.97 11.67,-0.59 z" />
						<path
   id="XMLID_1766_"
   class="st2"
   d="m 555.28,235.22 c -11.25,0 -19.91,4.85 -24.81,16.73 l 14.7,-0.74 c 2.23,-4.51 4.86,-5.84 8.12,-5.84 3.18,0 5.23,1.19 5.69,5.14 l 13.78,-0.7 c -1.21,-9.74 -7.54,-14.59 -17.48,-14.59 z" />
						<path
   id="XMLID_1765_"
   class="st2"
   d="m 396.13,256.51 h -15.75 l 2.2,-10.36 h 19.3 c 0.71,-1.21 1.35,-3.12 1.84,-5.25 0.35,-1.92 0.43,-3.69 0.28,-4.76 h -32.78 l -5.13,24.13 30.07,-1.52 c 0.05,-0.87 0.01,-1.59 -0.03,-2.24 z" />
						<path
   id="XMLID_1762_"
   class="st2"
   d="m 364.77,250.27 c 1.92,-9.15 -2.7,-14.12 -12.63,-14.12 h -21.72 l -5.57,26.22 32.12,-1.63 c 3.82,-2.15 6.76,-5.63 7.8,-10.47 z m -13.49,0.78 c -0.71,3.48 -2.84,5.54 -5.96,5.54 h -5.75 l 2.34,-11.07 h 5.75 c 3.13,-0.01 4.4,1.91 3.62,5.53 z" />
						<path
   id="XMLID_1761_"
   class="st2"
   d="m 431.39,247.29 h 12.07 c 0,0 1.21,-2.42 1.84,-5.61 0.71,-3.26 0.49,-5.54 0.49,-5.54 h -37.96 c 0,0 -1.21,2.27 -1.92,5.68 -0.71,3.26 -0.43,5.47 -0.43,5.47 h 12.42 l -2.23,10.48 13.63,-0.69 z" />
						<path
   id="XMLID_1760_"
   class="st2"
   d="m 495.66,249.91 h 0.36 c 0,0 -0.03,1.47 0.07,3.78 l 12.13,-0.62 -2.91,-16.29 c 0,0 -2.48,-0.64 -8.44,-0.64 -6.03,0 -9.08,0.64 -9.08,0.64 l -3.72,17.52 11.16,-0.56 c 0.31,-2.39 0.43,-3.83 0.43,-3.83 z" />
						<path
   id="XMLID_1759_"
   class="st2"
   d="m 459.45,247.92 h 0.28 c 0,0 -0.36,3.4 -0.08,7.61 l 13.07,-0.66 -1.78,-18.09 c 0,0 -2.63,-0.64 -8.51,-0.64 -5.68,0 -8.87,0.64 -8.87,0.64 l -10.26,19.58 13.05,-0.66 c 2.11,-4.23 3.1,-7.78 3.1,-7.78 z" />
					</g>
					<g
   id="XMLID_1749_">
						<path
   id="XMLID_1757_"
   class="st3"
   d="m 409.53,286.6 c 0,0 2.34,0.64 6.6,0.64 3.91,0 6.89,-0.64 6.89,-0.64 l 1.55,-7.28 -13.32,-0.75 z" />
						<path
   id="XMLID_1756_"
   class="st3"
   d="m 462.43,286.6 c 0,0 2.13,0.64 6.32,0.64 4.61,0 7.1,-0.64 7.1,-0.64 l -0.43,-4.4 -13.45,-0.76 z" />
						<path
   id="XMLID_1755_"
   class="st3"
   d="m 427.44,286.6 c 0,0 2.27,0.64 6.24,0.64 4.12,0 6.68,-0.64 6.68,-0.64 l 3.19,-6.21 -12.49,-0.71 z" />
						<path
   id="XMLID_1754_"
   class="st3"
   d="m 375.98,277.23 0.14,-0.66 -13.33,-0.76 -2.43,11.42 h 33.5 c 0.78,-1.28 1.35,-3.12 1.77,-5.11 0.38,-1.64 0.47,-3.24 0.39,-4.43 l -8.2,-0.46 z" />
						<path
   id="XMLID_1753_"
   class="st3"
   d="m 544.35,288.16 c 3.61,0 6.95,-0.48 9.98,-1.5 l -20.75,-1.18 c 2.82,1.79 6.44,2.68 10.77,2.68 z" />
						<path
   id="XMLID_1752_"
   class="st3"
   d="m 477.2,286.6 c 0,0 1.63,0.64 5.46,0.64 3.91,0 6.03,-0.64 6.03,-0.64 l 0.76,-3.61 -11.36,-0.64 z" />
						<path
   id="XMLID_1751_"
   class="st3"
   d="m 341.56,287.24 c 9.42,0 16.13,-3.67 18.99,-11.55 l -13.68,-0.77 c -1.24,2 -3.19,2.89 -5.87,2.89 h -5.96 l 0.75,-3.51 -13.3,-0.75 -2.91,13.71 h 21.98 z" />
						<path
   id="XMLID_1750_"
   class="st3"
   d="m 501.47,286.6 c 0,0 3.05,0.64 8.66,0.64 6.03,0 8.87,-0.64 8.87,-0.64 l 0.4,-1.91 -18.49,-1.05 z" />
					</g>
				</g>
			</g>
		</g>
		<g
   id="g972">
			<g
   id="g970">
				<g
   id="XMLID_1704_">
					<linearGradient
   id="XMLID_2_"
   gradientUnits="userSpaceOnUse"
   x1="215.16451"
   y1="261.77689"
   x2="309.27499"
   y2="261.77689">
						<stop
   offset="0.0649"
   style="stop-color:#EB7424"
   id="stop870" />
						<stop
   offset="0.8317"
   style="stop-color:#AD3224"
   id="stop872" />
					</linearGradient>
					<path
   id="XMLID_1722_"
   class="st4"
   d="m 307.36,269.27 c -0.41,-0.99 -0.91,-1.96 -1.48,-2.87 -0.71,-1.14 -1.49,-2.22 -2.25,-3.32 -0.32,-0.46 -0.7,-0.95 -1.01,-1.5 -0.49,-0.85 -0.29,-1.89 0.33,-2.77 6.12,-8.72 5.53,-17.38 3.99,-22.4 -2,-6.53 -8.32,-13.05 -16.3,-17.87 -5.18,-3.13 -10.77,-5.66 -16.47,-7.7 -4.15,-1.48 -8.31,-2.74 -12.66,-3.48 -2.86,-0.49 -5.88,-0.7 -8.75,-0.18 -4.1,0.39 -8.43,1.26 -12.47,2.03 -4.73,0.9 -10.17,1.57 -13.92,4.82 -3.46,3 -5.48,7.35 -6.7,11.66 -2.31,8.14 -3.47,16.51 -4.04,24.94 -0.56,8.32 -0.58,16.75 -0.27,25.08 0.18,4.85 0.66,9.73 1.56,14.5 1.16,6.15 3.19,12.57 6.98,17.64 1.02,1.36 2.24,2.59 3.62,3.59 3.55,2.56 8.05,3.01 12.27,3.4 8.21,0.77 16.71,3.35 24.84,0.65 2.14,-0.52 4.28,-1.12 6.37,-1.82 4.02,-1.37 7.98,-2.96 11.83,-4.79 4.06,-1.93 7.97,-4.2 11.59,-6.87 3.48,-2.57 6.76,-5.51 9.41,-8.95 2.52,-3.27 4.06,-6.89 4.98,-10.89 0.1,-0.46 0.25,-0.93 0.31,-1.4 0.5,-3.85 -0.27,-7.9 -1.76,-11.5 z m -44.18,13.14 c -1.25,0.93 -2.6,1.75 -3.95,2.52 -3.55,2.01 -7.32,4.06 -11.26,5.14 -1.33,0.37 -2.71,0.61 -4.1,0.63 -0.27,0 -2.96,-0.05 -3,-0.24 -5.12,-28.34 0.02,-57.37 0.02,-57.37 0.36,-0.67 3.91,-0.06 4.3,0.01 3.12,0.57 6.09,1.82 9,3.06 2.69,1.15 5.33,2.38 7.77,4 3.01,2.01 6.62,5.32 7.02,9.15 0.34,3.26 -0.68,5.77 -2.29,8.55 -0.57,0.98 -1.65,2.19 -1.47,3.4 0.22,1.46 1.44,2.65 2.28,3.78 0.75,1.02 1.4,2.1 1.87,3.28 2.24,5.69 -1.87,10.9 -6.19,14.09 z"
   style="fill:url(#XMLID_2_)" />
					<path
   id="XMLID_1719_"
   class="st5"
   d="m 307.33,269.24 c -0.41,-0.99 -0.92,-1.95 -1.48,-2.87 -0.71,-1.14 -1.49,-2.22 -2.25,-3.32 -0.32,-0.46 -0.7,-0.95 -1.01,-1.51 -0.47,-0.85 -0.31,-1.89 0.31,-2.77 6.12,-8.72 5.53,-17.38 3.99,-22.4 -2,-6.53 -8.32,-13.05 -16.3,-17.87 -5.18,-3.13 -10.77,-5.66 -16.47,-7.7 -4.15,-1.48 -8.31,-2.74 -12.66,-3.48 -2.86,-0.49 -5.88,-0.7 -8.75,-0.18 -4.1,0.39 -8.43,1.26 -12.47,2.03 -4.73,0.9 -10.14,1.62 -13.92,4.82 -3.94,3.34 -5.48,7.35 -6.7,11.66 -2.3,8.14 -3.47,16.51 -4.04,24.94 -0.56,8.32 -0.58,16.75 -0.27,25.08 0.18,4.85 0.69,9.77 1.59,14.54 1.16,6.15 3.15,12.53 6.94,17.6 1.02,1.36 2.24,2.59 3.62,3.59 3.55,2.56 8.05,3.01 12.27,3.4 8.21,0.77 16.73,3.38 24.86,0.68 2.14,-0.52 4.29,-1.12 6.38,-1.82 4.02,-1.37 8,-2.97 11.84,-4.79 4.06,-1.93 7.94,-4.23 11.56,-6.9 3.48,-2.57 6.76,-5.51 9.41,-8.95 2.52,-3.27 4.06,-6.89 4.98,-10.89 0.1,-0.46 0.25,-0.93 0.31,-1.4 0.5,-3.83 -0.25,-7.89 -1.74,-11.49 z m -8.59,24.48 c 0,0 -6.28,7.99 -26.18,15.68 0,0 -11.02,4.68 -17.42,3.2 0,0 -8.01,-0.73 -11.94,-9.06 0,0 -5.07,-6.81 -6.12,-36.61 0,0 0,-31.65 5.46,-44.63 0,0 3.58,-11.88 15.87,-11.54 0,0 15.01,0.72 33.84,12.89 0,0 16.28,8.6 11.54,26.41 0,0 -1.65,4.48 -5.07,9.41 0,0 -0.99,1.34 0.19,2.7 0,0 7.51,8.2 7.17,15.78 0,-0.01 0.82,8.39 -7.34,15.77 z" />
					<linearGradient
   id="XMLID_3_"
   gradientUnits="userSpaceOnUse"
   x1="215.1301"
   y1="261.7626"
   x2="309.28131"
   y2="261.7626">
						<stop
   offset="0.4302"
   style="stop-color:#BBBCBE"
   id="stop877" />
						<stop
   offset="0.6503"
   style="stop-color:#FFFFFF"
   id="stop879" />
						<stop
   offset="1"
   style="stop-color:#A5A7AA"
   id="stop881" />
					</linearGradient>
					<path
   id="XMLID_1716_"
   class="st6"
   d="m 307.34,269.23 c -0.41,-0.99 -0.92,-1.95 -1.48,-2.87 -0.71,-1.14 -1.49,-2.22 -2.25,-3.32 -0.32,-0.46 -0.7,-0.95 -1.01,-1.51 -0.47,-0.85 -0.23,-1.85 0.38,-2.72 6.12,-8.72 5.48,-17.43 3.94,-22.45 -2,-6.53 -8.34,-13.04 -16.32,-17.86 -5.18,-3.13 -10.77,-5.66 -16.47,-7.7 -4.15,-1.48 -8.31,-2.74 -12.66,-3.48 -2.86,-0.49 -5.88,-0.7 -8.75,-0.18 -4.1,0.39 -8.43,1.26 -12.47,2.03 -4.73,0.9 -10.21,1.56 -13.93,4.83 -4.41,3.87 -5.46,7.34 -6.68,11.66 -2.31,8.14 -3.47,16.51 -4.04,24.94 -0.56,8.32 -0.58,16.75 -0.27,25.08 0.18,4.85 0.66,9.73 1.56,14.5 1.16,6.15 3.19,12.57 6.98,17.64 1.02,1.36 2.24,2.59 3.62,3.59 3.55,2.56 8.05,3.01 12.27,3.4 8.21,0.77 16.72,3.38 24.86,0.69 2.14,-0.52 4.29,-1.12 6.38,-1.83 4.02,-1.37 8,-2.97 11.84,-4.79 4.06,-1.93 8.02,-4.16 11.64,-6.83 3.48,-2.57 6.76,-5.53 9.41,-8.97 2.52,-3.27 4.04,-6.93 4.96,-10.93 0.1,-0.46 0.24,-0.93 0.3,-1.4 0.48,-3.85 -0.31,-7.91 -1.81,-11.52 z m -7.76,25.88 c 0,0 -6.85,8.16 -27.51,16.14 0,0 -11.31,4.6 -17.95,3.06 0,0 -8.45,-0.5 -12.53,-9.15 0,0 -5.26,-7.07 -6.35,-38 0,0 0,-32.88 5.66,-46.32 0,0 3.63,-12.05 16.38,-11.7 0,0 15.68,0.47 35.22,13.11 0,0 17.43,9.24 12.52,27.73 0,0 -0.99,3.87 -4.65,9.19 0,0 -0.98,1.42 -0.33,2.26 0,0 7.84,9.12 7.49,16.99 0.01,-0.01 0.53,9.02 -7.95,16.69 z"
   style="fill:url(#XMLID_3_)" />
					<path
   id="XMLID_1715_"
   class="st7"
   d="m 298.9,267.3 c -0.61,-0.92 -1.16,-1.86 -1.79,-2.76 -0.91,-1.31 -1.81,-2.24 -2.13,-3.85 -0.08,-0.39 0.16,-1.72 0.52,-2.24 4.86,-6.91 6.46,-10.81 5.77,-16.79 -1.93,-16.96 -27.95,-24.46 -33.72,-26.3 -16.54,-5.29 -21.81,0.81 -24.67,9.99 -0.7,1.97 -1.35,4.32 -2,7.73 0.38,-0.71 3.83,0.13 4.22,0.2 2.71,0.53 6.06,1.81 8.95,3.05 2.68,1.15 5.31,2.37 7.74,3.99 2.99,2 6.59,5.29 6.99,9.11 0.34,3.24 -0.68,5.75 -2.28,8.51 -0.57,0.98 -1.64,2.18 -1.46,3.38 0.22,1.45 1.44,2.64 2.27,3.76 0.75,1.02 1.3,2.12 1.79,3.29 2.27,5.5 -1.78,10.82 -6.08,13.99 -1.25,0.92 -2.58,1.74 -3.94,2.5 -3.53,2 -7.28,4.04 -11.21,5.12 -1.33,0.37 -2.7,0.6 -4.08,0.63 -0.27,0 -2.85,-0.05 -2.93,-0.23 0.65,3.54 1.24,5.96 1.62,7.25 2.72,9.37 7.34,13.15 15.63,12.47 7.73,-0.63 44.59,-12.16 44.59,-32.42 -0.01,-3.86 -1.72,-7.22 -3.8,-10.38 z" />
					<linearGradient
   id="XMLID_4_"
   gradientUnits="userSpaceOnUse"
   x1="239.67751"
   y1="212.6976"
   x2="239.67751"
   y2="318.99539">
						<stop
   offset="0"
   style="stop-color:#58585B;stop-opacity:0.4"
   id="stop886" />
						<stop
   offset="7.655138e-03"
   style="stop-color:#656567;stop-opacity:0.435"
   id="stop888" />
						<stop
   offset="0.0342"
   style="stop-color:#8B8D8C;stop-opacity:0.556"
   id="stop890" />
						<stop
   offset="0.0603"
   style="stop-color:#A9ACA9;stop-opacity:0.6753"
   id="stop892" />
						<stop
   offset="0.0856"
   style="stop-color:#BFC2BD;stop-opacity:0.7909"
   id="stop894" />
						<stop
   offset="0.1097"
   style="stop-color:#CCCFCA;stop-opacity:0.9011"
   id="stop896" />
						<stop
   offset="0.1314"
   style="stop-color:#D0D4CE"
   id="stop898" />
						<stop
   offset="0.4776"
   style="stop-color:#D0D1D2"
   id="stop900" />
						<stop
   offset="0.6884"
   style="stop-color:#424143;stop-opacity:0.1"
   id="stop902" />
						<stop
   offset="0.7084"
   style="stop-color:#585858;stop-opacity:0.1876"
   id="stop904" />
						<stop
   offset="0.7482"
   style="stop-color:#7D807D;stop-opacity:0.3616"
   id="stop906" />
						<stop
   offset="0.7875"
   style="stop-color:#9A9F9A;stop-opacity:0.5332"
   id="stop908" />
						<stop
   offset="0.8255"
   style="stop-color:#AFB5AF;stop-opacity:0.6993"
   id="stop910" />
						<stop
   offset="0.8617"
   style="stop-color:#BCC2BC;stop-opacity:0.8577"
   id="stop912" />
						<stop
   offset="0.8942"
   style="stop-color:#C0C7C0"
   id="stop914" />
						<stop
   offset="1"
   style="stop-color:#373430"
   id="stop916" />
					</linearGradient>
					<path
   id="XMLID_1714_"
   class="st8"
   d="m 244.29,312.84 c -6.76,-5.02 -8.94,-14.27 -10.09,-22.1 -0.43,-2.98 -0.81,-5.95 -1.13,-8.94 -0.23,-2.23 -0.43,-4.47 -0.59,-6.71 -0.55,-7.64 -0.65,-15.32 -0.14,-22.96 0.18,-2.65 0.38,-5.29 0.65,-7.94 0.35,-3.47 0.74,-6.93 1.32,-10.37 1.71,-10.08 4.66,-21.85 15.26,-25.96 0.94,-0.36 1.42,-0.48 2.4,-0.65 -4.12,0.42 -7.94,1.12 -11.98,1.89 -4.73,0.9 -9.96,1.61 -13.68,4.89 -4.07,3.59 -5.72,7.29 -6.94,11.62 -2.31,8.15 -3.47,16.54 -4.04,24.97 -0.56,8.34 -0.34,16.82 -0.03,25.17 0.18,4.85 0.67,9.62 1.57,14.4 1.16,6.16 2.93,12.66 6.72,17.74 1.02,1.36 2.24,2.59 3.62,3.59 3.55,2.57 8.05,3.01 12.27,3.41 8.21,0.77 16.72,3.38 24.86,0.68 -6.77,1.66 -14.21,1.61 -20.05,-2.73 z"
   style="fill:url(#XMLID_4_)" />
					<linearGradient
   id="XMLID_5_"
   gradientUnits="userSpaceOnUse"
   x1="273.06601"
   y1="229.537"
   x2="261.48309"
   y2="247.2244">
						<stop
   offset="0"
   style="stop-color:#DE5926"
   id="stop920" />
						<stop
   offset="1"
   style="stop-color:#F6AD3C"
   id="stop922" />
					</linearGradient>
					<path
   id="XMLID_1713_"
   class="st9"
   d="m 242.44,232.83 c 0,0 -0.05,-7.03 7.37,-17.73 0,0 5.11,-4.35 19.1,0.7 3.28,1.05 18.04,5.31 26.56,14.3 0,0 3.55,3.55 4.9,7.71 l -31.68,11.03 c 0,0 -0.02,-0.15 -0.08,-0.37 -0.3,-1.06 -1.63,-4.47 -5.58,-7.26 -1.11,-0.78 -2.18,-1.56 -3.38,-2.19 -0.11,-0.06 -0.23,-0.11 -0.34,-0.18 -2.01,-1.17 -5.2,-2.48 -5.2,-2.48 0,0 -7.42,-3.27 -11.67,-3.53 z"
   style="fill:url(#XMLID_5_)" />
					<linearGradient
   id="XMLID_6_"
   gradientUnits="userSpaceOnUse"
   x1="264.6814"
   y1="254.8607"
   x2="299.92441"
   y2="246.2791">
						<stop
   offset="0"
   style="stop-color:#D98828"
   id="stop926" />
						<stop
   offset="1"
   style="stop-color:#BB4025"
   id="stop928" />
					</linearGradient>
					<path
   id="XMLID_1712_"
   class="st10"
   d="m 266.49,257.94 c 0,0 18.69,-2.81 31.19,-2.76 0,0 3.2,-4.61 3.67,-9.13 0,0 0.5,-4.36 -0.97,-8.24 l -31.69,11.03 c 0,0 0.29,1 0.09,3.09 -0.01,0.11 -0.02,0.21 -0.04,0.33 -0.21,1.51 -0.88,3.44 -2.25,5.68 z"
   style="fill:url(#XMLID_6_)" />
					<linearGradient
   id="XMLID_7_"
   gradientUnits="userSpaceOnUse"
   x1="283.08429"
   y1="249.1013"
   x2="282.81189"
   y2="255.9111">
						<stop
   offset="0"
   style="stop-color:#E35C26"
   id="stop932" />
						<stop
   offset="1"
   style="stop-color:#F6AD3C"
   id="stop934" />
					</linearGradient>
					<path
   id="XMLID_1711_"
   class="st11"
   d="m 295.74,258.09 c 0,0 3.63,-5.12 4.15,-6.96 l -31.86,3.72 c 0,0 -1.36,3.04 -2.24,4.16 z"
   style="fill:url(#XMLID_7_)" />
					<path
   id="XMLID_1710_"
   class="st12"
   d="m 265.8,259 29.96,-0.92 c 0,0 -1.02,1.22 -0.7,2.96 l -30.05,-0.1 c 0,0 0.06,-0.87 0.79,-1.94 z" />
					<linearGradient
   id="XMLID_8_"
   gradientUnits="userSpaceOnUse"
   x1="300.4115"
   y1="267.49149"
   x2="262.32159"
   y2="267.15829">
						<stop
   offset="0"
   style="stop-color:#E35C26"
   id="stop939" />
						<stop
   offset="1"
   style="stop-color:#F6AD3C"
   id="stop941" />
					</linearGradient>
					<path
   id="XMLID_1709_"
   class="st13"
   d="m 265.01,260.94 30.05,0.1 c 0,0 0.44,1.21 2.27,3.79 0.92,1.42 4.27,6.21 4.83,9.08 0,0 -14.1,-2.8 -32.77,-4.75 0,0 -1.83,-3.97 -2.88,-5.09 -0.01,0 -1.82,-2.05 -1.5,-3.13 z"
   style="fill:url(#XMLID_8_)" />
					<linearGradient
   id="XMLID_9_"
   gradientUnits="userSpaceOnUse"
   x1="264.98679"
   y1="273.36911"
   x2="296.95889"
   y2="280.52951">
						<stop
   offset="0"
   style="stop-color:#D98828"
   id="stop945" />
						<stop
   offset="1"
   style="stop-color:#BB4025"
   id="stop947" />
					</linearGradient>
					<path
   id="XMLID_1708_"
   class="st14"
   d="m 269.38,269.16 c 0,0 17.19,1.73 32.77,4.75 0,0 2.64,6.66 -3.32,14.82 l -30.97,-11.38 c 0.01,0 2.8,-3.73 1.52,-8.19 z"
   style="fill:url(#XMLID_9_)" />
					<linearGradient
   id="XMLID_10_"
   gradientUnits="userSpaceOnUse"
   x1="241.04671"
   y1="293.2998"
   x2="254.7393"
   y2="317.43039">
						<stop
   offset="0.0649"
   style="stop-color:#EDA034"
   id="stop951" />
						<stop
   offset="0.8317"
   style="stop-color:#E96228"
   id="stop953" />
					</linearGradient>
					<path
   id="XMLID_1707_"
   class="st15"
   d="m 241.49,290.53 9.53,18.76 c 0,0 -2.16,-0.64 -3.85,-2.57 0,0 -1.19,-1.12 -2.31,-3.13 -0.25,-0.45 -0.91,-1.58 -1.72,-3.85 -0.2,-0.57 -1.11,-3.26 -1.52,-5.51 -0.45,-2.07 -0.77,-3.82 -0.77,-3.82 0,0 0.12,0.08 0.64,0.12 z"
   style="fill:url(#XMLID_10_)" />
					<linearGradient
   id="XMLID_11_"
   gradientUnits="userSpaceOnUse"
   x1="241.3793"
   y1="235.263"
   x2="247.67"
   y2="216.15649">
						<stop
   offset="0.0649"
   style="stop-color:#EDA034"
   id="stop957" />
						<stop
   offset="0.8317"
   style="stop-color:#E96228"
   id="stop959" />
					</linearGradient>
					<path
   id="XMLID_1706_"
   class="st16"
   d="m 242.44,232.83 c 0,0 0.13,-3.97 2.76,-9.77 1.12,-2.28 3.56,-6.55 4.6,-7.97 0,0 -3.48,1.61 -5.63,6.78 -0.54,1.15 -1.99,5.2 -2.55,7.6 -0.43,1.81 -0.74,3.18 -0.74,3.61 0,0.01 0.37,-0.38 1.56,-0.25 z"
   style="fill:url(#XMLID_11_)" />
					<linearGradient
   id="XMLID_12_"
   gradientUnits="userSpaceOnUse"
   x1="278.41461"
   y1="304.07379"
   x2="267.2789"
   y2="287.8978">
						<stop
   offset="0"
   style="stop-color:#E35C26"
   id="stop963" />
						<stop
   offset="1"
   style="stop-color:#F6AD3C"
   id="stop965" />
					</linearGradient>
					<path
   id="XMLID_1705_"
   class="st17"
   d="m 267.87,277.35 30.97,11.38 c 0,0 -2.76,4.25 -9.34,8.76 -0.68,0.46 -1.37,0.93 -2.08,1.37 -1.33,0.84 -2.73,1.66 -4.34,2.52 -2.22,1.18 -4.82,2.47 -8.24,3.86 -1.11,0.45 -8.01,3.28 -14.53,4.55 -1.12,0.19 -5.19,1.07 -9.3,-0.5 l -9.53,-18.76 c 0,0 2.66,0.23 4.32,-0.08 1.41,-0.28 3.78,-0.65 9.3,-3.4 1.68,-0.9 5.47,-3.03 5.91,-3.34 0.44,-0.31 3.33,-2.06 5.15,-4.19 0.7,-0.75 0.92,-1.04 1.71,-2.17 z"
   style="fill:url(#XMLID_12_)" />
				</g>
			</g>
		</g>
	</g>
</g>
</svg>
