<?xml version="1.0" encoding="UTF-8" standalone="no"?>
<svg
   xmlns:dc="http://purl.org/dc/elements/1.1/"
   xmlns:cc="http://creativecommons.org/ns#"
   xmlns:rdf="http://www.w3.org/1999/02/22-rdf-syntax-ns#"
   xmlns:svg="http://www.w3.org/2000/svg"
   xmlns="http://www.w3.org/2000/svg"
   viewBox="0 0 816 1056"
   height="1056"
   width="816"
   xml:space="preserve"
   id="svg2"
   version="1.1"><metadata
     id="metadata8"><rdf:RDF><cc:Work
         rdf:about=""><dc:format>image/svg+xml</dc:format><dc:type
           rdf:resource="http://purl.org/dc/dcmitype/StillImage" /></cc:Work></rdf:RDF></metadata><defs
     id="defs6"><clipPath
       id="clipPath18"
       clipPathUnits="userSpaceOnUse"><path
         id="path16"
         d="M 0,792 H 612 V 0 H 0 Z" /></clipPath></defs><g
     transform="matrix(1.3333333,0,0,-1.3333333,0,1056)"
     id="g10"><g
       id="g12"><g
         clip-path="url(#clipPath18)"
         id="g14"><path
           id="path20"
           style="fill:#ec1c24;fill-opacity:1;fill-rule:evenodd;stroke:none"
           d="m 303.528,670.243 c 153.59,0 277.973,-66.184 277.973,-148.875 0,-81.915 -124.383,-148.102 -277.973,-148.102 -152.598,0 -276.974,66.187 -276.974,148.102 0,82.691 124.376,148.875 276.974,148.875 m 0.049,35.085 c -164.286,0 -297.769,-82.299 -297.769,-183.96 0,-100.899 133.483,-183.184 297.769,-183.184 165.185,0 297.727,82.285 297.727,183.184 0,101.661 -132.542,183.96 -297.727,183.96" /><path
           id="path22"
           style="fill:#ec1c24;fill-opacity:1;fill-rule:evenodd;stroke:none"
           d="M 495.801,589.945 H 390.792 V 453.524 h 37.045 v 102.481 h 40.835 l 10.727,-12.427 v -56.172 h -43.63 v -33.882 h 80.64 v 112.122 z" /><path
           id="path24"
           style="fill:#ec1c24;fill-opacity:1;fill-rule:evenodd;stroke:none"
           d="m 329.476,541.552 h -39.711 v -88.028 h 40.876 v 55.399 l 31.099,-0.063 14.918,13.849 v 67.236 h -41.097 v -42.728 z" /><path
           id="path26"
           style="fill:#ec1c24;fill-opacity:1;fill-rule:evenodd;stroke:none"
           d="m 275.908,589.973 -41.406,-0.028 v -67.201 l 14.919,-13.835 32.542,0.055 v 32.626 l -6.055,5.655 z" /><path
           id="path28"
           style="fill:#ec1c24;fill-opacity:1;fill-rule:evenodd;stroke:none"
           d="m 185.234,532.438 -59.485,0.035 v 24.15 l 59.485,-0.035 z m 35.141,36.265 -18.11,21.242 H 90.706 V 453.524 h 35.057 l 0.055,57.605 h 59.579 l -0.073,-24.236 h -51.696 v -33.369 h 66.768 l 19.979,13.774 v 45.67 l -9.308,8.698 9.308,7.857 z" /></g></g></g></svg>