<svg xmlns="http://www.w3.org/2000/svg" height="800" width="1200" viewBox="-6.059985 -5.409575 52.51987 32.45745"><defs><clipPath clipPathUnits="userSpaceOnUse" id="a"><path d="M0 0h595.276v841.89H0z"/></clipPath></defs><g clip-path="url(#a)" transform="matrix(.35278 0 0 -.35278 -149.6 277)"><path d="M435.0518 751.7949c-1.788 2.393-3.459 4.714-5.172 7.108l-.076-.036c.038-2.625.076-5.285.076-7.948v-10.227h-5.817v27.527h5.702l8.253-11.103c1.787-2.393 3.458-4.714 5.172-7.109l.075.038c-.041 2.624-.075 5.285-.075 7.946v10.228h5.817v-27.527h-5.706zm84.9765-3.4985c2.965-1.901 6.462-2.738 8.63-2.738 2.205 0 3.842.875 3.842 2.928 0 2.547-2.586 2.775-6.125 3.916-3.8 1.254-7.223 3.117-7.223 7.906 0 5.135 3.877 8.329 9.658 8.329 2.697 0 6.006-.684 8.401-1.976v-5.971c-2.925 1.825-6.31 2.661-8.438 2.661-2.056 0-3.538-.76-3.538-2.585 0-2.431 2.547-2.624 5.855-3.727 4.145-1.367 7.492-3.306 7.492-8.173 0-5.361-4.07-8.593-10.001-8.593-2.737 0-6.044.685-8.553 1.939zm-36.1103 24.0444c.294.014.589.022.887.022.303 0 .61-.008.911-.022l.369 12.856h-2.533zm0-35.623c.294-.015.589-.023.887-.023.303 0 .61.008.911.023l.369-12.858h-2.533zm-16.9131 16.9096c-.015.294-.02.591-.02.887 0 .305.005.61.02.913l-12.857.367v-2.533zm35.625 0c.015.294.021.591.021.887 0 .305-.006.61-.021.913l12.857.367v-2.533zm-21.793 18.2847c.288.066.576.125.868.176.304.053.606.099.906.137l-1.87 12.727-2.498-.44zm6.1856-35.082c.294.038.585.081.877.134.304.051.602.112.897.18l2.594-12.599-2.494-.441zm-19.5889 13.7173c-.064.288-.125.579-.178.87-.052.301-.096.603-.135.902l-12.725-1.869.439-2.495zm35.081 6.1865c-.037.293-.079.584-.133.878-.05.301-.112.6-.179.894l12.598 2.597.44-2.496zm-24.6357 14.2236c.274.113.549.223.828.324.286.105.572.202.864.292l-4.051 12.208-2.381-.866zm12.1856-33.4761c.28.089.56.181.84.284.289.104.572.216.849.332l4.745-11.956-2.38-.867zm-21.6768 10.108c-.111.271-.221.547-.323.827-.107.287-.201.574-.29.863l-12.209-4.051.866-2.381zm33.4766 12.184c-.087.281-.181.562-.281.842-.107.286-.217.57-.336.849l11.959 4.744.866-2.381zm-26.7305 9.7286c.245.162.499.316.755.464.266.153.534.299.802.435l-6.109 11.321-2.196-1.267zm17.8105-30.8497a18.357 18.357 0 011.558.899l6.749-10.95-2.195-1.266zm-23.0986 6.1905c-.16.248-.316.498-.464.755-.153.266-.301.532-.436.803l-11.318-6.111 1.264-2.193zm30.8467 17.81c-.132.263-.273.522-.421.779-.154.266-.312.526-.478.781l10.95 6.747 1.267-2.195zm-28.0108 4.9405c.214.2.436.396.663.589.235.196.472.385.713.568l-7.98 10.087-1.944-1.63zm22.8965-27.2886c.234.177.466.363.695.553.233.196.46.398.684.604l8.548-9.612-1.944-1.629zm-23.8261 2.0849c-.197.215-.395.436-.587.664-.197.235-.386.473-.568.713l-10.087-7.981 1.628-1.942zm27.289 22.8965c-.176.234-.362.468-.551.697-.196.233-.4.46-.604.682l9.611 8.547 1.632-1.939zm-28.4443 0c.177.236.362.468.551.697.197.232.398.46.604.682l-9.611 8.547-1.631-1.942zm27.2871-22.8965c.2.215.396.436.589.665.198.234.387.472.568.713l10.088-7.982-1.629-1.942zm-23.8223-2.0849c-.234.177-.466.363-.693.553-.237.196-.463.398-.685.604l-8.55-9.612 1.944-1.629zm22.8955 27.2886c-.212.2-.436.396-.663.589-.233.196-.472.386-.713.568l7.98 10.087 1.944-1.63zm-28.0117-4.9405c.133.263.273.524.421.781.154.264.313.524.479.779l-10.954 6.747-1.263-2.195zm30.8477-17.81c.16.248.316.5.464.755.153.268.301.536.439.803l11.315-6.111-1.264-2.193zm-23.0987-6.1905c-.263.135-.522.276-.78.424-.265.154-.525.311-.778.475l-6.749-10.948 2.195-1.268zm17.8096 30.8497c-.245.162-.498.316-.754.466-.267.152-.533.297-.802.433l6.109 11.323 2.196-1.269zm-26.7295-9.7271c.087.281.18.561.283.842.104.284.215.57.334.848l-11.96 4.744-.862-2.382zm33.4766-12.1851c.111.271.221.546.323.826.104.289.201.577.29.866l12.208-4.051-.866-2.381zm-21.6778-10.1084c-.279.089-.562.181-.84.286-.288.102-.572.214-.849.33l-4.744-11.952 2.379-.871zm12.1856 33.4761c-.271.114-.548.225-.825.325-.288.105-.577.201-.866.291l4.05 12.209 2.382-.866zm-24.6358-14.2231c.036.294.08.586.129.878.057.3.117.6.184.895l-12.598 2.595-.44-2.495zm35.0831-6.1851c.063.286.124.578.173.869.056.302.1.603.139.904l12.725-1.872-.439-2.494zm-19.5918-13.7192c-.293.039-.584.081-.876.135-.304.052-.603.111-.894.179l-2.597-12.599 2.494-.44zm6.1855 35.082c-.286.066-.575.125-.867.179-.304.053-.605.096-.902.134l1.866 12.728 2.498-.44z" fill="#231f20"/></g></svg>